<?xml version="1.0" encoding="utf-8" standalone="no"?>
<!DOCTYPE svg PUBLIC "-//W3C//DTD SVG 1.1//EN"
  "http://www.w3.org/Graphics/SVG/1.1/DTD/svg11.dtd">
<svg xmlns:xlink="http://www.w3.org/1999/xlink" width="423.201563pt" height="223.224375pt" viewBox="0 0 423.201563 223.224375" xmlns="http://www.w3.org/2000/svg" version="1.1">
 <metadata>
  <rdf:RDF xmlns:dc="http://purl.org/dc/elements/1.1/" xmlns:cc="http://creativecommons.org/ns#" xmlns:rdf="http://www.w3.org/1999/02/22-rdf-syntax-ns#">
   <cc:Work>
    <dc:type rdf:resource="http://purl.org/dc/dcmitype/StillImage"/>
    <dc:date>2023-06-13T14:11:39.755267</dc:date>
    <dc:format>image/svg+xml</dc:format>
    <dc:creator>
     <cc:Agent>
      <dc:title>Matplotlib v3.5.3, https://matplotlib.org/</dc:title>
     </cc:Agent>
    </dc:creator>
   </cc:Work>
  </rdf:RDF>
 </metadata>
 <defs>
  <style type="text/css">*{stroke-linejoin: round; stroke-linecap: butt}</style>
 </defs>
 <g id="figure_1">
  <g id="patch_1">
   <path d="M 0 223.224375 
L 423.201563 223.224375 
L 423.201563 0 
L 0 0 
z
" style="fill: #ffffff"/>
  </g>
  <g id="axes_1">
   <g id="patch_2">
    <path d="M 32.601563 194.04 
L 423.201563 194.04 
L 423.201563 0 
L 32.601563 0 
z
" style="fill: #ffffff"/>
   </g>
   <g id="matplotlib.axis_1">
    <g id="xtick_1">
     <g id="line2d_1">
      <path d="M 61.452699 194.04 
L 61.452699 0 
" clip-path="url(#p70ea5c330d)" style="fill: none; stroke: #e6e6e6; stroke-width: 0.8; stroke-linecap: square"/>
     </g>
     <g id="line2d_2">
      <defs>
       <path id="m79e2903d6a" d="M 0 0 
L 0 3.5 
" style="stroke: #000000; stroke-width: 0.8"/>
      </defs>
      <g>
       <use xlink:href="#m79e2903d6a" x="61.452699" y="194.04" style="stroke: #000000; stroke-width: 0.8"/>
      </g>
     </g>
     <g id="text_1">
      <!-- 2.8 -->
      <g transform="translate(55.202699 207.98375)scale(0.1 -0.1)">
       <defs>
        <path id="TimesNewRomanPSMT-32" d="M 2934 816 
L 2638 0 
L 138 0 
L 138 116 
Q 1241 1122 1691 1759 
Q 2141 2397 2141 2925 
Q 2141 3328 1894 3587 
Q 1647 3847 1303 3847 
Q 991 3847 742 3664 
Q 494 3481 375 3128 
L 259 3128 
Q 338 3706 661 4015 
Q 984 4325 1469 4325 
Q 1984 4325 2329 3994 
Q 2675 3663 2675 3213 
Q 2675 2891 2525 2569 
Q 2294 2063 1775 1497 
Q 997 647 803 472 
L 1909 472 
Q 2247 472 2383 497 
Q 2519 522 2628 598 
Q 2738 675 2819 816 
L 2934 816 
z
" transform="scale(0.015625)"/>
        <path id="TimesNewRomanPSMT-2e" d="M 800 606 
Q 947 606 1047 504 
Q 1147 403 1147 259 
Q 1147 116 1045 14 
Q 944 -88 800 -88 
Q 656 -88 554 14 
Q 453 116 453 259 
Q 453 406 554 506 
Q 656 606 800 606 
z
" transform="scale(0.015625)"/>
        <path id="TimesNewRomanPSMT-38" d="M 1228 2134 
Q 725 2547 579 2797 
Q 434 3047 434 3316 
Q 434 3728 753 4026 
Q 1072 4325 1600 4325 
Q 2113 4325 2425 4047 
Q 2738 3769 2738 3413 
Q 2738 3175 2569 2928 
Q 2400 2681 1866 2347 
Q 2416 1922 2594 1678 
Q 2831 1359 2831 1006 
Q 2831 559 2490 242 
Q 2150 -75 1597 -75 
Q 994 -75 656 303 
Q 388 606 388 966 
Q 388 1247 577 1523 
Q 766 1800 1228 2134 
z
M 1719 2469 
Q 2094 2806 2194 3001 
Q 2294 3197 2294 3444 
Q 2294 3772 2109 3958 
Q 1925 4144 1606 4144 
Q 1288 4144 1088 3959 
Q 888 3775 888 3528 
Q 888 3366 970 3203 
Q 1053 3041 1206 2894 
L 1719 2469 
z
M 1375 2016 
Q 1116 1797 991 1539 
Q 866 1281 866 981 
Q 866 578 1086 336 
Q 1306 94 1647 94 
Q 1984 94 2187 284 
Q 2391 475 2391 747 
Q 2391 972 2272 1150 
Q 2050 1481 1375 2016 
z
" transform="scale(0.015625)"/>
       </defs>
       <use xlink:href="#TimesNewRomanPSMT-32"/>
       <use xlink:href="#TimesNewRomanPSMT-2e" x="50"/>
       <use xlink:href="#TimesNewRomanPSMT-38" x="75"/>
      </g>
     </g>
    </g>
    <g id="xtick_2">
     <g id="line2d_3">
      <path d="M 105.839063 194.04 
L 105.839063 0 
" clip-path="url(#p70ea5c330d)" style="fill: none; stroke: #e6e6e6; stroke-width: 0.8; stroke-linecap: square"/>
     </g>
     <g id="line2d_4">
      <g>
       <use xlink:href="#m79e2903d6a" x="105.839063" y="194.04" style="stroke: #000000; stroke-width: 0.8"/>
      </g>
     </g>
     <g id="text_2">
      <!-- 3.0 -->
      <g transform="translate(99.589063 207.98375)scale(0.1 -0.1)">
       <defs>
        <path id="TimesNewRomanPSMT-33" d="M 325 3431 
Q 506 3859 782 4092 
Q 1059 4325 1472 4325 
Q 1981 4325 2253 3994 
Q 2459 3747 2459 3466 
Q 2459 3003 1878 2509 
Q 2269 2356 2469 2072 
Q 2669 1788 2669 1403 
Q 2669 853 2319 450 
Q 1863 -75 997 -75 
Q 569 -75 414 31 
Q 259 138 259 259 
Q 259 350 332 419 
Q 406 488 509 488 
Q 588 488 669 463 
Q 722 447 909 348 
Q 1097 250 1169 231 
Q 1284 197 1416 197 
Q 1734 197 1970 444 
Q 2206 691 2206 1028 
Q 2206 1275 2097 1509 
Q 2016 1684 1919 1775 
Q 1784 1900 1550 2001 
Q 1316 2103 1072 2103 
L 972 2103 
L 972 2197 
Q 1219 2228 1467 2375 
Q 1716 2522 1828 2728 
Q 1941 2934 1941 3181 
Q 1941 3503 1739 3701 
Q 1538 3900 1238 3900 
Q 753 3900 428 3381 
L 325 3431 
z
" transform="scale(0.015625)"/>
        <path id="TimesNewRomanPSMT-30" d="M 231 2094 
Q 231 2819 450 3342 
Q 669 3866 1031 4122 
Q 1313 4325 1613 4325 
Q 2100 4325 2488 3828 
Q 2972 3213 2972 2159 
Q 2972 1422 2759 906 
Q 2547 391 2217 158 
Q 1888 -75 1581 -75 
Q 975 -75 572 641 
Q 231 1244 231 2094 
z
M 844 2016 
Q 844 1141 1059 588 
Q 1238 122 1591 122 
Q 1759 122 1940 273 
Q 2122 425 2216 781 
Q 2359 1319 2359 2297 
Q 2359 3022 2209 3506 
Q 2097 3866 1919 4016 
Q 1791 4119 1609 4119 
Q 1397 4119 1231 3928 
Q 1006 3669 925 3112 
Q 844 2556 844 2016 
z
" transform="scale(0.015625)"/>
       </defs>
       <use xlink:href="#TimesNewRomanPSMT-33"/>
       <use xlink:href="#TimesNewRomanPSMT-2e" x="50"/>
       <use xlink:href="#TimesNewRomanPSMT-30" x="75"/>
      </g>
     </g>
    </g>
    <g id="xtick_3">
     <g id="line2d_5">
      <path d="M 150.225426 194.04 
L 150.225426 0 
" clip-path="url(#p70ea5c330d)" style="fill: none; stroke: #e6e6e6; stroke-width: 0.8; stroke-linecap: square"/>
     </g>
     <g id="line2d_6">
      <g>
       <use xlink:href="#m79e2903d6a" x="150.225426" y="194.04" style="stroke: #000000; stroke-width: 0.8"/>
      </g>
     </g>
     <g id="text_3">
      <!-- 3.2 -->
      <g transform="translate(143.975426 207.98375)scale(0.1 -0.1)">
       <use xlink:href="#TimesNewRomanPSMT-33"/>
       <use xlink:href="#TimesNewRomanPSMT-2e" x="50"/>
       <use xlink:href="#TimesNewRomanPSMT-32" x="75"/>
      </g>
     </g>
    </g>
    <g id="xtick_4">
     <g id="line2d_7">
      <path d="M 194.61179 194.04 
L 194.61179 0 
" clip-path="url(#p70ea5c330d)" style="fill: none; stroke: #e6e6e6; stroke-width: 0.8; stroke-linecap: square"/>
     </g>
     <g id="line2d_8">
      <g>
       <use xlink:href="#m79e2903d6a" x="194.61179" y="194.04" style="stroke: #000000; stroke-width: 0.8"/>
      </g>
     </g>
     <g id="text_4">
      <!-- 3.4 -->
      <g transform="translate(188.36179 207.98375)scale(0.1 -0.1)">
       <defs>
        <path id="TimesNewRomanPSMT-34" d="M 2978 1563 
L 2978 1119 
L 2409 1119 
L 2409 0 
L 1894 0 
L 1894 1119 
L 100 1119 
L 100 1519 
L 2066 4325 
L 2409 4325 
L 2409 1563 
L 2978 1563 
z
M 1894 1563 
L 1894 3666 
L 406 1563 
L 1894 1563 
z
" transform="scale(0.015625)"/>
       </defs>
       <use xlink:href="#TimesNewRomanPSMT-33"/>
       <use xlink:href="#TimesNewRomanPSMT-2e" x="50"/>
       <use xlink:href="#TimesNewRomanPSMT-34" x="75"/>
      </g>
     </g>
    </g>
    <g id="xtick_5">
     <g id="line2d_9">
      <path d="M 238.998153 194.04 
L 238.998153 0 
" clip-path="url(#p70ea5c330d)" style="fill: none; stroke: #e6e6e6; stroke-width: 0.8; stroke-linecap: square"/>
     </g>
     <g id="line2d_10">
      <g>
       <use xlink:href="#m79e2903d6a" x="238.998153" y="194.04" style="stroke: #000000; stroke-width: 0.8"/>
      </g>
     </g>
     <g id="text_5">
      <!-- 3.6 -->
      <g transform="translate(232.748153 207.98375)scale(0.1 -0.1)">
       <defs>
        <path id="TimesNewRomanPSMT-36" d="M 2869 4325 
L 2869 4209 
Q 2456 4169 2195 4045 
Q 1934 3922 1679 3669 
Q 1425 3416 1258 3105 
Q 1091 2794 978 2366 
Q 1428 2675 1881 2675 
Q 2316 2675 2634 2325 
Q 2953 1975 2953 1425 
Q 2953 894 2631 456 
Q 2244 -75 1606 -75 
Q 1172 -75 869 213 
Q 275 772 275 1663 
Q 275 2231 503 2743 
Q 731 3256 1154 3653 
Q 1578 4050 1965 4187 
Q 2353 4325 2688 4325 
L 2869 4325 
z
M 925 2138 
Q 869 1716 869 1456 
Q 869 1156 980 804 
Q 1091 453 1309 247 
Q 1469 100 1697 100 
Q 1969 100 2183 356 
Q 2397 613 2397 1088 
Q 2397 1622 2184 2012 
Q 1972 2403 1581 2403 
Q 1463 2403 1327 2353 
Q 1191 2303 925 2138 
z
" transform="scale(0.015625)"/>
       </defs>
       <use xlink:href="#TimesNewRomanPSMT-33"/>
       <use xlink:href="#TimesNewRomanPSMT-2e" x="50"/>
       <use xlink:href="#TimesNewRomanPSMT-36" x="75"/>
      </g>
     </g>
    </g>
    <g id="xtick_6">
     <g id="line2d_11">
      <path d="M 283.384517 194.04 
L 283.384517 0 
" clip-path="url(#p70ea5c330d)" style="fill: none; stroke: #e6e6e6; stroke-width: 0.8; stroke-linecap: square"/>
     </g>
     <g id="line2d_12">
      <g>
       <use xlink:href="#m79e2903d6a" x="283.384517" y="194.04" style="stroke: #000000; stroke-width: 0.8"/>
      </g>
     </g>
     <g id="text_6">
      <!-- 3.8 -->
      <g transform="translate(277.134517 207.98375)scale(0.1 -0.1)">
       <use xlink:href="#TimesNewRomanPSMT-33"/>
       <use xlink:href="#TimesNewRomanPSMT-2e" x="50"/>
       <use xlink:href="#TimesNewRomanPSMT-38" x="75"/>
      </g>
     </g>
    </g>
    <g id="xtick_7">
     <g id="line2d_13">
      <path d="M 327.770881 194.04 
L 327.770881 0 
" clip-path="url(#p70ea5c330d)" style="fill: none; stroke: #e6e6e6; stroke-width: 0.8; stroke-linecap: square"/>
     </g>
     <g id="line2d_14">
      <g>
       <use xlink:href="#m79e2903d6a" x="327.770881" y="194.04" style="stroke: #000000; stroke-width: 0.8"/>
      </g>
     </g>
     <g id="text_7">
      <!-- 4.0 -->
      <g transform="translate(321.520881 207.98375)scale(0.1 -0.1)">
       <use xlink:href="#TimesNewRomanPSMT-34"/>
       <use xlink:href="#TimesNewRomanPSMT-2e" x="50"/>
       <use xlink:href="#TimesNewRomanPSMT-30" x="75"/>
      </g>
     </g>
    </g>
    <g id="xtick_8">
     <g id="line2d_15">
      <path d="M 372.157244 194.04 
L 372.157244 0 
" clip-path="url(#p70ea5c330d)" style="fill: none; stroke: #e6e6e6; stroke-width: 0.8; stroke-linecap: square"/>
     </g>
     <g id="line2d_16">
      <g>
       <use xlink:href="#m79e2903d6a" x="372.157244" y="194.04" style="stroke: #000000; stroke-width: 0.8"/>
      </g>
     </g>
     <g id="text_8">
      <!-- 4.2 -->
      <g transform="translate(365.907244 207.98375)scale(0.1 -0.1)">
       <use xlink:href="#TimesNewRomanPSMT-34"/>
       <use xlink:href="#TimesNewRomanPSMT-2e" x="50"/>
       <use xlink:href="#TimesNewRomanPSMT-32" x="75"/>
      </g>
     </g>
    </g>
    <g id="xtick_9">
     <g id="line2d_17">
      <path d="M 416.543608 194.04 
L 416.543608 0 
" clip-path="url(#p70ea5c330d)" style="fill: none; stroke: #e6e6e6; stroke-width: 0.8; stroke-linecap: square"/>
     </g>
     <g id="line2d_18">
      <g>
       <use xlink:href="#m79e2903d6a" x="416.543608" y="194.04" style="stroke: #000000; stroke-width: 0.8"/>
      </g>
     </g>
     <g id="text_9">
      <!-- 4.4 -->
      <g transform="translate(410.293608 207.98375)scale(0.1 -0.1)">
       <use xlink:href="#TimesNewRomanPSMT-34"/>
       <use xlink:href="#TimesNewRomanPSMT-2e" x="50"/>
       <use xlink:href="#TimesNewRomanPSMT-34" x="75"/>
      </g>
     </g>
    </g>
    <g id="text_10">
     <!-- estimated rate (segments / second) -->
     <g transform="translate(159.034375 221.066563)scale(0.1 -0.1)">
      <defs>
       <path id="TimesNewRomanPSMT-65" d="M 681 1784 
Q 678 1147 991 784 
Q 1303 422 1725 422 
Q 2006 422 2214 576 
Q 2422 731 2563 1106 
L 2659 1044 
Q 2594 616 2278 264 
Q 1963 -88 1488 -88 
Q 972 -88 605 314 
Q 238 716 238 1394 
Q 238 2128 614 2539 
Q 991 2950 1559 2950 
Q 2041 2950 2350 2633 
Q 2659 2316 2659 1784 
L 681 1784 
z
M 681 1966 
L 2006 1966 
Q 1991 2241 1941 2353 
Q 1863 2528 1708 2628 
Q 1553 2728 1384 2728 
Q 1125 2728 920 2526 
Q 716 2325 681 1966 
z
" transform="scale(0.015625)"/>
       <path id="TimesNewRomanPSMT-73" d="M 2050 2947 
L 2050 1972 
L 1947 1972 
Q 1828 2431 1642 2597 
Q 1456 2763 1169 2763 
Q 950 2763 815 2647 
Q 681 2531 681 2391 
Q 681 2216 781 2091 
Q 878 1963 1175 1819 
L 1631 1597 
Q 2266 1288 2266 781 
Q 2266 391 1970 151 
Q 1675 -88 1309 -88 
Q 1047 -88 709 6 
Q 606 38 541 38 
Q 469 38 428 -44 
L 325 -44 
L 325 978 
L 428 978 
Q 516 541 762 319 
Q 1009 97 1316 97 
Q 1531 97 1667 223 
Q 1803 350 1803 528 
Q 1803 744 1651 891 
Q 1500 1038 1047 1263 
Q 594 1488 453 1669 
Q 313 1847 313 2119 
Q 313 2472 555 2709 
Q 797 2947 1181 2947 
Q 1350 2947 1591 2875 
Q 1750 2828 1803 2828 
Q 1853 2828 1881 2850 
Q 1909 2872 1947 2947 
L 2050 2947 
z
" transform="scale(0.015625)"/>
       <path id="TimesNewRomanPSMT-74" d="M 1031 3803 
L 1031 2863 
L 1700 2863 
L 1700 2644 
L 1031 2644 
L 1031 788 
Q 1031 509 1111 412 
Q 1191 316 1316 316 
Q 1419 316 1516 380 
Q 1613 444 1666 569 
L 1788 569 
Q 1678 263 1478 108 
Q 1278 -47 1066 -47 
Q 922 -47 784 33 
Q 647 113 581 261 
Q 516 409 516 719 
L 516 2644 
L 63 2644 
L 63 2747 
Q 234 2816 414 2980 
Q 594 3144 734 3369 
Q 806 3488 934 3803 
L 1031 3803 
z
" transform="scale(0.015625)"/>
       <path id="TimesNewRomanPSMT-69" d="M 928 4444 
Q 1059 4444 1151 4351 
Q 1244 4259 1244 4128 
Q 1244 3997 1151 3903 
Q 1059 3809 928 3809 
Q 797 3809 703 3903 
Q 609 3997 609 4128 
Q 609 4259 701 4351 
Q 794 4444 928 4444 
z
M 1188 2947 
L 1188 647 
Q 1188 378 1227 289 
Q 1266 200 1342 156 
Q 1419 113 1622 113 
L 1622 0 
L 231 0 
L 231 113 
Q 441 113 512 153 
Q 584 194 626 287 
Q 669 381 669 647 
L 669 1750 
Q 669 2216 641 2353 
Q 619 2453 572 2492 
Q 525 2531 444 2531 
Q 356 2531 231 2484 
L 188 2597 
L 1050 2947 
L 1188 2947 
z
" transform="scale(0.015625)"/>
       <path id="TimesNewRomanPSMT-6d" d="M 1050 2338 
Q 1363 2650 1419 2697 
Q 1559 2816 1721 2881 
Q 1884 2947 2044 2947 
Q 2313 2947 2506 2790 
Q 2700 2634 2766 2338 
Q 3088 2713 3309 2830 
Q 3531 2947 3766 2947 
Q 3994 2947 4170 2830 
Q 4347 2713 4450 2447 
Q 4519 2266 4519 1878 
L 4519 647 
Q 4519 378 4559 278 
Q 4591 209 4675 161 
Q 4759 113 4950 113 
L 4950 0 
L 3538 0 
L 3538 113 
L 3597 113 
Q 3781 113 3884 184 
Q 3956 234 3988 344 
Q 4000 397 4000 647 
L 4000 1878 
Q 4000 2228 3916 2372 
Q 3794 2572 3525 2572 
Q 3359 2572 3192 2489 
Q 3025 2406 2788 2181 
L 2781 2147 
L 2788 2013 
L 2788 647 
Q 2788 353 2820 281 
Q 2853 209 2943 161 
Q 3034 113 3253 113 
L 3253 0 
L 1806 0 
L 1806 113 
Q 2044 113 2133 169 
Q 2222 225 2256 338 
Q 2272 391 2272 647 
L 2272 1878 
Q 2272 2228 2169 2381 
Q 2031 2581 1784 2581 
Q 1616 2581 1450 2491 
Q 1191 2353 1050 2181 
L 1050 647 
Q 1050 366 1089 281 
Q 1128 197 1204 155 
Q 1281 113 1516 113 
L 1516 0 
L 100 0 
L 100 113 
Q 297 113 375 155 
Q 453 197 493 289 
Q 534 381 534 647 
L 534 1741 
Q 534 2213 506 2350 
Q 484 2453 437 2492 
Q 391 2531 309 2531 
Q 222 2531 100 2484 
L 53 2597 
L 916 2947 
L 1050 2947 
L 1050 2338 
z
" transform="scale(0.015625)"/>
       <path id="TimesNewRomanPSMT-61" d="M 1822 413 
Q 1381 72 1269 19 
Q 1100 -59 909 -59 
Q 613 -59 420 144 
Q 228 347 228 678 
Q 228 888 322 1041 
Q 450 1253 767 1440 
Q 1084 1628 1822 1897 
L 1822 2009 
Q 1822 2438 1686 2597 
Q 1550 2756 1291 2756 
Q 1094 2756 978 2650 
Q 859 2544 859 2406 
L 866 2225 
Q 866 2081 792 2003 
Q 719 1925 600 1925 
Q 484 1925 411 2006 
Q 338 2088 338 2228 
Q 338 2497 613 2722 
Q 888 2947 1384 2947 
Q 1766 2947 2009 2819 
Q 2194 2722 2281 2516 
Q 2338 2381 2338 1966 
L 2338 994 
Q 2338 584 2353 492 
Q 2369 400 2405 369 
Q 2441 338 2488 338 
Q 2538 338 2575 359 
Q 2641 400 2828 588 
L 2828 413 
Q 2478 -56 2159 -56 
Q 2006 -56 1915 50 
Q 1825 156 1822 413 
z
M 1822 616 
L 1822 1706 
Q 1350 1519 1213 1441 
Q 966 1303 859 1153 
Q 753 1003 753 825 
Q 753 600 887 451 
Q 1022 303 1197 303 
Q 1434 303 1822 616 
z
" transform="scale(0.015625)"/>
       <path id="TimesNewRomanPSMT-64" d="M 2222 322 
Q 2013 103 1813 7 
Q 1613 -88 1381 -88 
Q 913 -88 563 304 
Q 213 697 213 1313 
Q 213 1928 600 2439 
Q 988 2950 1597 2950 
Q 1975 2950 2222 2709 
L 2222 3238 
Q 2222 3728 2198 3840 
Q 2175 3953 2125 3993 
Q 2075 4034 2000 4034 
Q 1919 4034 1784 3984 
L 1744 4094 
L 2597 4444 
L 2738 4444 
L 2738 1134 
Q 2738 631 2761 520 
Q 2784 409 2836 365 
Q 2888 322 2956 322 
Q 3041 322 3181 375 
L 3216 266 
L 2366 -88 
L 2222 -88 
L 2222 322 
z
M 2222 541 
L 2222 2016 
Q 2203 2228 2109 2403 
Q 2016 2578 1861 2667 
Q 1706 2756 1559 2756 
Q 1284 2756 1069 2509 
Q 784 2184 784 1559 
Q 784 928 1059 592 
Q 1334 256 1672 256 
Q 1956 256 2222 541 
z
" transform="scale(0.015625)"/>
       <path id="TimesNewRomanPSMT-20" transform="scale(0.015625)"/>
       <path id="TimesNewRomanPSMT-72" d="M 1038 2947 
L 1038 2303 
Q 1397 2947 1775 2947 
Q 1947 2947 2059 2842 
Q 2172 2738 2172 2600 
Q 2172 2478 2090 2393 
Q 2009 2309 1897 2309 
Q 1788 2309 1652 2417 
Q 1516 2525 1450 2525 
Q 1394 2525 1328 2463 
Q 1188 2334 1038 2041 
L 1038 669 
Q 1038 431 1097 309 
Q 1138 225 1241 169 
Q 1344 113 1538 113 
L 1538 0 
L 72 0 
L 72 113 
Q 291 113 397 181 
Q 475 231 506 341 
Q 522 394 522 644 
L 522 1753 
Q 522 2253 501 2348 
Q 481 2444 426 2487 
Q 372 2531 291 2531 
Q 194 2531 72 2484 
L 41 2597 
L 906 2947 
L 1038 2947 
z
" transform="scale(0.015625)"/>
       <path id="TimesNewRomanPSMT-28" d="M 1988 -1253 
L 1988 -1369 
Q 1516 -1131 1200 -813 
Q 750 -359 506 256 
Q 263 872 263 1534 
Q 263 2503 741 3301 
Q 1219 4100 1988 4444 
L 1988 4313 
Q 1603 4100 1356 3731 
Q 1109 3363 987 2797 
Q 866 2231 866 1616 
Q 866 947 969 400 
Q 1050 -31 1165 -292 
Q 1281 -553 1476 -793 
Q 1672 -1034 1988 -1253 
z
" transform="scale(0.015625)"/>
       <path id="TimesNewRomanPSMT-67" d="M 966 1044 
Q 703 1172 562 1401 
Q 422 1631 422 1909 
Q 422 2334 742 2640 
Q 1063 2947 1563 2947 
Q 1972 2947 2272 2747 
L 2878 2747 
Q 3013 2747 3034 2739 
Q 3056 2731 3066 2713 
Q 3084 2684 3084 2613 
Q 3084 2531 3069 2500 
Q 3059 2484 3036 2475 
Q 3013 2466 2878 2466 
L 2506 2466 
Q 2681 2241 2681 1891 
Q 2681 1491 2375 1206 
Q 2069 922 1553 922 
Q 1341 922 1119 984 
Q 981 866 932 777 
Q 884 688 884 625 
Q 884 572 936 522 
Q 988 472 1138 450 
Q 1225 438 1575 428 
Q 2219 413 2409 384 
Q 2700 344 2873 169 
Q 3047 -6 3047 -263 
Q 3047 -616 2716 -925 
Q 2228 -1381 1444 -1381 
Q 841 -1381 425 -1109 
Q 191 -953 191 -784 
Q 191 -709 225 -634 
Q 278 -519 444 -313 
Q 466 -284 763 25 
Q 600 122 533 198 
Q 466 275 466 372 
Q 466 481 555 628 
Q 644 775 966 1044 
z
M 1509 2797 
Q 1278 2797 1122 2612 
Q 966 2428 966 2047 
Q 966 1553 1178 1281 
Q 1341 1075 1591 1075 
Q 1828 1075 1981 1253 
Q 2134 1431 2134 1813 
Q 2134 2309 1919 2591 
Q 1759 2797 1509 2797 
z
M 934 0 
Q 788 -159 713 -296 
Q 638 -434 638 -550 
Q 638 -700 819 -813 
Q 1131 -1006 1722 -1006 
Q 2284 -1006 2551 -807 
Q 2819 -609 2819 -384 
Q 2819 -222 2659 -153 
Q 2497 -84 2016 -72 
Q 1313 -53 934 0 
z
" transform="scale(0.015625)"/>
       <path id="TimesNewRomanPSMT-6e" d="M 1034 2341 
Q 1538 2947 1994 2947 
Q 2228 2947 2397 2830 
Q 2566 2713 2666 2444 
Q 2734 2256 2734 1869 
L 2734 647 
Q 2734 375 2778 278 
Q 2813 200 2889 156 
Q 2966 113 3172 113 
L 3172 0 
L 1756 0 
L 1756 113 
L 1816 113 
Q 2016 113 2095 173 
Q 2175 234 2206 353 
Q 2219 400 2219 647 
L 2219 1819 
Q 2219 2209 2117 2386 
Q 2016 2563 1775 2563 
Q 1403 2563 1034 2156 
L 1034 647 
Q 1034 356 1069 288 
Q 1113 197 1189 155 
Q 1266 113 1500 113 
L 1500 0 
L 84 0 
L 84 113 
L 147 113 
Q 366 113 442 223 
Q 519 334 519 647 
L 519 1709 
Q 519 2225 495 2337 
Q 472 2450 423 2490 
Q 375 2531 294 2531 
Q 206 2531 84 2484 
L 38 2597 
L 900 2947 
L 1034 2947 
L 1034 2341 
z
" transform="scale(0.015625)"/>
       <path id="TimesNewRomanPSMT-2f" d="M 1794 4444 
L 259 -88 
L 9 -88 
L 1544 4444 
L 1794 4444 
z
" transform="scale(0.015625)"/>
       <path id="TimesNewRomanPSMT-63" d="M 2631 1088 
Q 2516 522 2178 217 
Q 1841 -88 1431 -88 
Q 944 -88 581 321 
Q 219 731 219 1428 
Q 219 2103 620 2525 
Q 1022 2947 1584 2947 
Q 2006 2947 2278 2723 
Q 2550 2500 2550 2259 
Q 2550 2141 2473 2067 
Q 2397 1994 2259 1994 
Q 2075 1994 1981 2113 
Q 1928 2178 1911 2362 
Q 1894 2547 1784 2644 
Q 1675 2738 1481 2738 
Q 1169 2738 978 2506 
Q 725 2200 725 1697 
Q 725 1184 976 792 
Q 1228 400 1656 400 
Q 1963 400 2206 609 
Q 2378 753 2541 1131 
L 2631 1088 
z
" transform="scale(0.015625)"/>
       <path id="TimesNewRomanPSMT-6f" d="M 1600 2947 
Q 2250 2947 2644 2453 
Q 2978 2031 2978 1484 
Q 2978 1100 2793 706 
Q 2609 313 2286 112 
Q 1963 -88 1566 -88 
Q 919 -88 538 428 
Q 216 863 216 1403 
Q 216 1797 411 2186 
Q 606 2575 925 2761 
Q 1244 2947 1600 2947 
z
M 1503 2744 
Q 1338 2744 1170 2645 
Q 1003 2547 900 2300 
Q 797 2053 797 1666 
Q 797 1041 1045 587 
Q 1294 134 1700 134 
Q 2003 134 2200 384 
Q 2397 634 2397 1244 
Q 2397 2006 2069 2444 
Q 1847 2744 1503 2744 
z
" transform="scale(0.015625)"/>
       <path id="TimesNewRomanPSMT-29" d="M 144 4313 
L 144 4444 
Q 619 4209 934 3891 
Q 1381 3434 1625 2820 
Q 1869 2206 1869 1541 
Q 1869 572 1392 -226 
Q 916 -1025 144 -1369 
L 144 -1253 
Q 528 -1038 776 -670 
Q 1025 -303 1145 264 
Q 1266 831 1266 1447 
Q 1266 2113 1163 2663 
Q 1084 3094 967 3353 
Q 850 3613 656 3853 
Q 463 4094 144 4313 
z
" transform="scale(0.015625)"/>
      </defs>
      <use xlink:href="#TimesNewRomanPSMT-65"/>
      <use xlink:href="#TimesNewRomanPSMT-73" x="44.384766"/>
      <use xlink:href="#TimesNewRomanPSMT-74" x="83.300781"/>
      <use xlink:href="#TimesNewRomanPSMT-69" x="111.083984"/>
      <use xlink:href="#TimesNewRomanPSMT-6d" x="138.867188"/>
      <use xlink:href="#TimesNewRomanPSMT-61" x="216.650391"/>
      <use xlink:href="#TimesNewRomanPSMT-74" x="261.035156"/>
      <use xlink:href="#TimesNewRomanPSMT-65" x="288.818359"/>
      <use xlink:href="#TimesNewRomanPSMT-64" x="333.203125"/>
      <use xlink:href="#TimesNewRomanPSMT-20" x="383.203125"/>
      <use xlink:href="#TimesNewRomanPSMT-72" x="408.203125"/>
      <use xlink:href="#TimesNewRomanPSMT-61" x="441.503906"/>
      <use xlink:href="#TimesNewRomanPSMT-74" x="485.888672"/>
      <use xlink:href="#TimesNewRomanPSMT-65" x="513.671875"/>
      <use xlink:href="#TimesNewRomanPSMT-20" x="558.056641"/>
      <use xlink:href="#TimesNewRomanPSMT-28" x="583.056641"/>
      <use xlink:href="#TimesNewRomanPSMT-73" x="616.357422"/>
      <use xlink:href="#TimesNewRomanPSMT-65" x="655.273438"/>
      <use xlink:href="#TimesNewRomanPSMT-67" x="699.658203"/>
      <use xlink:href="#TimesNewRomanPSMT-6d" x="749.658203"/>
      <use xlink:href="#TimesNewRomanPSMT-65" x="827.441406"/>
      <use xlink:href="#TimesNewRomanPSMT-6e" x="871.826172"/>
      <use xlink:href="#TimesNewRomanPSMT-74" x="921.826172"/>
      <use xlink:href="#TimesNewRomanPSMT-73" x="949.609375"/>
      <use xlink:href="#TimesNewRomanPSMT-20" x="988.525391"/>
      <use xlink:href="#TimesNewRomanPSMT-2f" x="1013.525391"/>
      <use xlink:href="#TimesNewRomanPSMT-20" x="1041.308594"/>
      <use xlink:href="#TimesNewRomanPSMT-73" x="1066.308594"/>
      <use xlink:href="#TimesNewRomanPSMT-65" x="1105.224609"/>
      <use xlink:href="#TimesNewRomanPSMT-63" x="1149.609375"/>
      <use xlink:href="#TimesNewRomanPSMT-6f" x="1193.994141"/>
      <use xlink:href="#TimesNewRomanPSMT-6e" x="1243.994141"/>
      <use xlink:href="#TimesNewRomanPSMT-64" x="1293.994141"/>
      <use xlink:href="#TimesNewRomanPSMT-29" x="1343.994141"/>
     </g>
    </g>
   </g>
   <g id="matplotlib.axis_2">
    <g id="ytick_1">
     <g id="line2d_19">
      <path d="M 32.601563 185.383024 
L 423.201563 185.383024 
" clip-path="url(#p70ea5c330d)" style="fill: none; stroke: #e6e6e6; stroke-width: 0.8; stroke-linecap: square"/>
     </g>
     <g id="line2d_20">
      <defs>
       <path id="m6dcbdec24a" d="M 0 0 
L -3.5 0 
" style="stroke: #000000; stroke-width: 0.8"/>
      </defs>
      <g>
       <use xlink:href="#m6dcbdec24a" x="32.601563" y="185.383024" style="stroke: #000000; stroke-width: 0.8"/>
      </g>
     </g>
     <g id="text_11">
      <!-- 3.5 -->
      <g transform="translate(13.101563 188.854899)scale(0.1 -0.1)">
       <defs>
        <path id="TimesNewRomanPSMT-35" d="M 2778 4238 
L 2534 3706 
L 1259 3706 
L 981 3138 
Q 1809 3016 2294 2522 
Q 2709 2097 2709 1522 
Q 2709 1188 2573 903 
Q 2438 619 2231 419 
Q 2025 219 1772 97 
Q 1413 -75 1034 -75 
Q 653 -75 479 54 
Q 306 184 306 341 
Q 306 428 378 495 
Q 450 563 559 563 
Q 641 563 702 538 
Q 763 513 909 409 
Q 1144 247 1384 247 
Q 1750 247 2026 523 
Q 2303 800 2303 1197 
Q 2303 1581 2056 1914 
Q 1809 2247 1375 2428 
Q 1034 2569 447 2591 
L 1259 4238 
L 2778 4238 
z
" transform="scale(0.015625)"/>
       </defs>
       <use xlink:href="#TimesNewRomanPSMT-33"/>
       <use xlink:href="#TimesNewRomanPSMT-2e" x="50"/>
       <use xlink:href="#TimesNewRomanPSMT-35" x="75"/>
      </g>
     </g>
    </g>
    <g id="ytick_2">
     <g id="line2d_21">
      <path d="M 32.601563 146.213325 
L 423.201563 146.213325 
" clip-path="url(#p70ea5c330d)" style="fill: none; stroke: #e6e6e6; stroke-width: 0.8; stroke-linecap: square"/>
     </g>
     <g id="line2d_22">
      <g>
       <use xlink:href="#m6dcbdec24a" x="32.601563" y="146.213325" style="stroke: #000000; stroke-width: 0.8"/>
      </g>
     </g>
     <g id="text_12">
      <!-- 4.0 -->
      <g transform="translate(13.101563 149.6852)scale(0.1 -0.1)">
       <use xlink:href="#TimesNewRomanPSMT-34"/>
       <use xlink:href="#TimesNewRomanPSMT-2e" x="50"/>
       <use xlink:href="#TimesNewRomanPSMT-30" x="75"/>
      </g>
     </g>
    </g>
    <g id="ytick_3">
     <g id="line2d_23">
      <path d="M 32.601563 107.043627 
L 423.201563 107.043627 
" clip-path="url(#p70ea5c330d)" style="fill: none; stroke: #e6e6e6; stroke-width: 0.8; stroke-linecap: square"/>
     </g>
     <g id="line2d_24">
      <g>
       <use xlink:href="#m6dcbdec24a" x="32.601563" y="107.043627" style="stroke: #000000; stroke-width: 0.8"/>
      </g>
     </g>
     <g id="text_13">
      <!-- 4.5 -->
      <g transform="translate(13.101563 110.515502)scale(0.1 -0.1)">
       <use xlink:href="#TimesNewRomanPSMT-34"/>
       <use xlink:href="#TimesNewRomanPSMT-2e" x="50"/>
       <use xlink:href="#TimesNewRomanPSMT-35" x="75"/>
      </g>
     </g>
    </g>
    <g id="ytick_4">
     <g id="line2d_25">
      <path d="M 32.601563 67.873929 
L 423.201563 67.873929 
" clip-path="url(#p70ea5c330d)" style="fill: none; stroke: #e6e6e6; stroke-width: 0.8; stroke-linecap: square"/>
     </g>
     <g id="line2d_26">
      <g>
       <use xlink:href="#m6dcbdec24a" x="32.601563" y="67.873929" style="stroke: #000000; stroke-width: 0.8"/>
      </g>
     </g>
     <g id="text_14">
      <!-- 5.0 -->
      <g transform="translate(13.101563 71.345804)scale(0.1 -0.1)">
       <use xlink:href="#TimesNewRomanPSMT-35"/>
       <use xlink:href="#TimesNewRomanPSMT-2e" x="50"/>
       <use xlink:href="#TimesNewRomanPSMT-30" x="75"/>
      </g>
     </g>
    </g>
    <g id="ytick_5">
     <g id="line2d_27">
      <path d="M 32.601563 28.70423 
L 423.201563 28.70423 
" clip-path="url(#p70ea5c330d)" style="fill: none; stroke: #e6e6e6; stroke-width: 0.8; stroke-linecap: square"/>
     </g>
     <g id="line2d_28">
      <g>
       <use xlink:href="#m6dcbdec24a" x="32.601563" y="28.70423" style="stroke: #000000; stroke-width: 0.8"/>
      </g>
     </g>
     <g id="text_15">
      <!-- 5.5 -->
      <g transform="translate(13.101563 32.176105)scale(0.1 -0.1)">
       <use xlink:href="#TimesNewRomanPSMT-35"/>
       <use xlink:href="#TimesNewRomanPSMT-2e" x="50"/>
       <use xlink:href="#TimesNewRomanPSMT-35" x="75"/>
      </g>
     </g>
    </g>
    <g id="text_16">
     <!-- syllable rate (syllables / second) -->
     <g transform="translate(6.94375 161.167656)rotate(-90)scale(0.1 -0.1)">
      <defs>
       <path id="TimesNewRomanPSMT-79" d="M 38 2863 
L 1372 2863 
L 1372 2747 
L 1306 2747 
Q 1166 2747 1095 2686 
Q 1025 2625 1025 2534 
Q 1025 2413 1128 2197 
L 1825 753 
L 2466 2334 
Q 2519 2463 2519 2588 
Q 2519 2644 2497 2672 
Q 2472 2706 2419 2726 
Q 2366 2747 2231 2747 
L 2231 2863 
L 3163 2863 
L 3163 2747 
Q 3047 2734 2984 2696 
Q 2922 2659 2847 2556 
Q 2819 2513 2741 2316 
L 1575 -541 
Q 1406 -956 1132 -1168 
Q 859 -1381 606 -1381 
Q 422 -1381 303 -1275 
Q 184 -1169 184 -1031 
Q 184 -900 270 -820 
Q 356 -741 506 -741 
Q 609 -741 788 -809 
Q 913 -856 944 -856 
Q 1038 -856 1148 -759 
Q 1259 -663 1372 -384 
L 1575 113 
L 547 2272 
Q 500 2369 397 2513 
Q 319 2622 269 2659 
Q 197 2709 38 2747 
L 38 2863 
z
" transform="scale(0.015625)"/>
       <path id="TimesNewRomanPSMT-6c" d="M 1184 4444 
L 1184 647 
Q 1184 378 1223 290 
Q 1263 203 1344 158 
Q 1425 113 1647 113 
L 1647 0 
L 244 0 
L 244 113 
Q 441 113 512 153 
Q 584 194 625 287 
Q 666 381 666 647 
L 666 3247 
Q 666 3731 644 3842 
Q 622 3953 573 3993 
Q 525 4034 450 4034 
Q 369 4034 244 3984 
L 191 4094 
L 1044 4444 
L 1184 4444 
z
" transform="scale(0.015625)"/>
       <path id="TimesNewRomanPSMT-62" d="M 984 2369 
Q 1400 2947 1881 2947 
Q 2322 2947 2650 2570 
Q 2978 2194 2978 1541 
Q 2978 778 2472 313 
Q 2038 -88 1503 -88 
Q 1253 -88 995 3 
Q 738 94 469 275 
L 469 3241 
Q 469 3728 445 3840 
Q 422 3953 372 3993 
Q 322 4034 247 4034 
Q 159 4034 28 3984 
L -16 4094 
L 844 4444 
L 984 4444 
L 984 2369 
z
M 984 2169 
L 984 456 
Q 1144 300 1314 220 
Q 1484 141 1663 141 
Q 1947 141 2192 453 
Q 2438 766 2438 1363 
Q 2438 1913 2192 2208 
Q 1947 2503 1634 2503 
Q 1469 2503 1303 2419 
Q 1178 2356 984 2169 
z
" transform="scale(0.015625)"/>
      </defs>
      <use xlink:href="#TimesNewRomanPSMT-73"/>
      <use xlink:href="#TimesNewRomanPSMT-79" x="38.916016"/>
      <use xlink:href="#TimesNewRomanPSMT-6c" x="88.916016"/>
      <use xlink:href="#TimesNewRomanPSMT-6c" x="116.699219"/>
      <use xlink:href="#TimesNewRomanPSMT-61" x="144.482422"/>
      <use xlink:href="#TimesNewRomanPSMT-62" x="188.867188"/>
      <use xlink:href="#TimesNewRomanPSMT-6c" x="238.867188"/>
      <use xlink:href="#TimesNewRomanPSMT-65" x="266.650391"/>
      <use xlink:href="#TimesNewRomanPSMT-20" x="311.035156"/>
      <use xlink:href="#TimesNewRomanPSMT-72" x="336.035156"/>
      <use xlink:href="#TimesNewRomanPSMT-61" x="369.335938"/>
      <use xlink:href="#TimesNewRomanPSMT-74" x="413.720703"/>
      <use xlink:href="#TimesNewRomanPSMT-65" x="441.503906"/>
      <use xlink:href="#TimesNewRomanPSMT-20" x="485.888672"/>
      <use xlink:href="#TimesNewRomanPSMT-28" x="510.888672"/>
      <use xlink:href="#TimesNewRomanPSMT-73" x="544.189453"/>
      <use xlink:href="#TimesNewRomanPSMT-79" x="583.105469"/>
      <use xlink:href="#TimesNewRomanPSMT-6c" x="633.105469"/>
      <use xlink:href="#TimesNewRomanPSMT-6c" x="660.888672"/>
      <use xlink:href="#TimesNewRomanPSMT-61" x="688.671875"/>
      <use xlink:href="#TimesNewRomanPSMT-62" x="733.056641"/>
      <use xlink:href="#TimesNewRomanPSMT-6c" x="783.056641"/>
      <use xlink:href="#TimesNewRomanPSMT-65" x="810.839844"/>
      <use xlink:href="#TimesNewRomanPSMT-73" x="855.224609"/>
      <use xlink:href="#TimesNewRomanPSMT-20" x="894.140625"/>
      <use xlink:href="#TimesNewRomanPSMT-2f" x="919.140625"/>
      <use xlink:href="#TimesNewRomanPSMT-20" x="946.923828"/>
      <use xlink:href="#TimesNewRomanPSMT-73" x="971.923828"/>
      <use xlink:href="#TimesNewRomanPSMT-65" x="1010.839844"/>
      <use xlink:href="#TimesNewRomanPSMT-63" x="1055.224609"/>
      <use xlink:href="#TimesNewRomanPSMT-6f" x="1099.609375"/>
      <use xlink:href="#TimesNewRomanPSMT-6e" x="1149.609375"/>
      <use xlink:href="#TimesNewRomanPSMT-64" x="1199.609375"/>
      <use xlink:href="#TimesNewRomanPSMT-29" x="1249.609375"/>
     </g>
    </g>
   </g>
   <g id="PathCollection_1">
    <defs>
     <path id="mfe529ed6a1" d="M 0 1.732051 
C 0.459345 1.732051 0.899939 1.549551 1.224745 1.224745 
C 1.549551 0.899939 1.732051 0.459345 1.732051 0 
C 1.732051 -0.459345 1.549551 -0.899939 1.224745 -1.224745 
C 0.899939 -1.549551 0.459345 -1.732051 0 -1.732051 
C -0.459345 -1.732051 -0.899939 -1.549551 -1.224745 -1.224745 
C -1.549551 -0.899939 -1.732051 -0.459345 -1.732051 0 
C -1.732051 0.459345 -1.549551 0.899939 -1.224745 1.224745 
C -0.899939 1.549551 -0.459345 1.732051 0 1.732051 
z
" style="stroke: #808080"/>
    </defs>
    <g clip-path="url(#p70ea5c330d)">
     <use xlink:href="#mfe529ed6a1" x="217.567373" y="104.715982" style="fill: #808080; stroke: #808080"/>
     <use xlink:href="#mfe529ed6a1" x="298.772494" y="72.180046" style="fill: #808080; stroke: #808080"/>
     <use xlink:href="#mfe529ed6a1" x="389.133902" y="28.962884" style="fill: #808080; stroke: #808080"/>
     <use xlink:href="#mfe529ed6a1" x="210.548437" y="113.440617" style="fill: #808080; stroke: #808080"/>
     <use xlink:href="#mfe529ed6a1" x="280.073277" y="80.688915" style="fill: #808080; stroke: #808080"/>
     <use xlink:href="#mfe529ed6a1" x="334.179354" y="51.23791" style="fill: #808080; stroke: #808080"/>
     <use xlink:href="#mfe529ed6a1" x="257.581731" y="87.34575" style="fill: #808080; stroke: #808080"/>
     <use xlink:href="#mfe529ed6a1" x="270.512008" y="75.680805" style="fill: #808080; stroke: #808080"/>
     <use xlink:href="#mfe529ed6a1" x="89.900151" y="170.919265" style="fill: #808080; stroke: #808080"/>
     <use xlink:href="#mfe529ed6a1" x="404.832241" y="22.393595" style="fill: #808080; stroke: #808080"/>
     <use xlink:href="#mfe529ed6a1" x="397.053362" y="38.608331" style="fill: #808080; stroke: #808080"/>
     <use xlink:href="#mfe529ed6a1" x="335.719619" y="30.985473" style="fill: #808080; stroke: #808080"/>
     <use xlink:href="#mfe529ed6a1" x="249.876948" y="81.011694" style="fill: #808080; stroke: #808080"/>
     <use xlink:href="#mfe529ed6a1" x="174.874758" y="128.587606" style="fill: #808080; stroke: #808080"/>
     <use xlink:href="#mfe529ed6a1" x="111.309005" y="171.496701" style="fill: #808080; stroke: #808080"/>
     <use xlink:href="#mfe529ed6a1" x="261.948935" y="97.643817" style="fill: #808080; stroke: #808080"/>
     <use xlink:href="#mfe529ed6a1" x="191.789872" y="107.478524" style="fill: #808080; stroke: #808080"/>
     <use xlink:href="#mfe529ed6a1" x="125.203574" y="153.748879" style="fill: #808080; stroke: #808080"/>
     <use xlink:href="#mfe529ed6a1" x="297.659978" y="69.835899" style="fill: #808080; stroke: #808080"/>
     <use xlink:href="#mfe529ed6a1" x="358.246859" y="61.362007" style="fill: #808080; stroke: #808080"/>
     <use xlink:href="#mfe529ed6a1" x="194.149384" y="124.446512" style="fill: #808080; stroke: #808080"/>
     <use xlink:href="#mfe529ed6a1" x="211.622071" y="95.711833" style="fill: #808080; stroke: #808080"/>
     <use xlink:href="#mfe529ed6a1" x="238.85588" y="95.07291" style="fill: #808080; stroke: #808080"/>
     <use xlink:href="#mfe529ed6a1" x="263.277985" y="85.226832" style="fill: #808080; stroke: #808080"/>
     <use xlink:href="#mfe529ed6a1" x="240.840273" y="84.560816" style="fill: #808080; stroke: #808080"/>
     <use xlink:href="#mfe529ed6a1" x="274.7142" y="43.459655" style="fill: #808080; stroke: #808080"/>
     <use xlink:href="#mfe529ed6a1" x="255.377046" y="75.66642" style="fill: #808080; stroke: #808080"/>
     <use xlink:href="#mfe529ed6a1" x="260.909164" y="106.384917" style="fill: #808080; stroke: #808080"/>
     <use xlink:href="#mfe529ed6a1" x="357.227693" y="37.734847" style="fill: #808080; stroke: #808080"/>
     <use xlink:href="#mfe529ed6a1" x="164.402108" y="119.003459" style="fill: #808080; stroke: #808080"/>
     <use xlink:href="#mfe529ed6a1" x="322.895411" y="70.630376" style="fill: #808080; stroke: #808080"/>
     <use xlink:href="#mfe529ed6a1" x="151.921894" y="120.840955" style="fill: #808080; stroke: #808080"/>
     <use xlink:href="#mfe529ed6a1" x="309.857419" y="58.665657" style="fill: #808080; stroke: #808080"/>
     <use xlink:href="#mfe529ed6a1" x="292.945562" y="76.722996" style="fill: #808080; stroke: #808080"/>
     <use xlink:href="#mfe529ed6a1" x="397.115209" y="32.621337" style="fill: #808080; stroke: #808080"/>
     <use xlink:href="#mfe529ed6a1" x="229.786397" y="112.45395" style="fill: #808080; stroke: #808080"/>
     <use xlink:href="#mfe529ed6a1" x="280.780975" y="88.070174" style="fill: #808080; stroke: #808080"/>
     <use xlink:href="#mfe529ed6a1" x="200.871637" y="107.602787" style="fill: #808080; stroke: #808080"/>
     <use xlink:href="#mfe529ed6a1" x="220.061105" y="103.131348" style="fill: #808080; stroke: #808080"/>
     <use xlink:href="#mfe529ed6a1" x="325.720798" y="56.301599" style="fill: #808080; stroke: #808080"/>
     <use xlink:href="#mfe529ed6a1" x="297.469333" y="39.30496" style="fill: #808080; stroke: #808080"/>
     <use xlink:href="#mfe529ed6a1" x="335.02062" y="47.420721" style="fill: #808080; stroke: #808080"/>
     <use xlink:href="#mfe529ed6a1" x="279.105386" y="56.530907" style="fill: #808080; stroke: #808080"/>
     <use xlink:href="#mfe529ed6a1" x="198.243818" y="118.563002" style="fill: #808080; stroke: #808080"/>
     <use xlink:href="#mfe529ed6a1" x="150.216539" y="143.604831" style="fill: #808080; stroke: #808080"/>
     <use xlink:href="#mfe529ed6a1" x="219.94208" y="100.791546" style="fill: #808080; stroke: #808080"/>
     <use xlink:href="#mfe529ed6a1" x="249.487476" y="61.568087" style="fill: #808080; stroke: #808080"/>
     <use xlink:href="#mfe529ed6a1" x="268.106517" y="84.423411" style="fill: #808080; stroke: #808080"/>
     <use xlink:href="#mfe529ed6a1" x="183.219494" y="111.562367" style="fill: #808080; stroke: #808080"/>
     <use xlink:href="#mfe529ed6a1" x="339.276651" y="33.015704" style="fill: #808080; stroke: #808080"/>
     <use xlink:href="#mfe529ed6a1" x="95.969949" y="148.626004" style="fill: #808080; stroke: #808080"/>
     <use xlink:href="#mfe529ed6a1" x="257.078098" y="72.712891" style="fill: #808080; stroke: #808080"/>
     <use xlink:href="#mfe529ed6a1" x="294.413528" y="59.291828" style="fill: #808080; stroke: #808080"/>
     <use xlink:href="#mfe529ed6a1" x="346.502523" y="12.416883" style="fill: #808080; stroke: #808080"/>
     <use xlink:href="#mfe529ed6a1" x="166.408554" y="109.972833" style="fill: #808080; stroke: #808080"/>
     <use xlink:href="#mfe529ed6a1" x="121.067112" y="136.548586" style="fill: #808080; stroke: #808080"/>
     <use xlink:href="#mfe529ed6a1" x="63.749642" y="185.22" style="fill: #808080; stroke: #808080"/>
     <use xlink:href="#mfe529ed6a1" x="334.278774" y="46.972748" style="fill: #808080; stroke: #808080"/>
     <use xlink:href="#mfe529ed6a1" x="269.229665" y="93.140574" style="fill: #808080; stroke: #808080"/>
     <use xlink:href="#mfe529ed6a1" x="263.93142" y="76.657899" style="fill: #808080; stroke: #808080"/>
     <use xlink:href="#mfe529ed6a1" x="273.37445" y="66.94313" style="fill: #808080; stroke: #808080"/>
     <use xlink:href="#mfe529ed6a1" x="147.210011" y="156.538849" style="fill: #808080; stroke: #808080"/>
     <use xlink:href="#mfe529ed6a1" x="335.9733" y="19.998324" style="fill: #808080; stroke: #808080"/>
     <use xlink:href="#mfe529ed6a1" x="265.031283" y="84.83793" style="fill: #808080; stroke: #808080"/>
     <use xlink:href="#mfe529ed6a1" x="347.278885" y="45.280762" style="fill: #808080; stroke: #808080"/>
     <use xlink:href="#mfe529ed6a1" x="294.140892" y="41.036736" style="fill: #808080; stroke: #808080"/>
     <use xlink:href="#mfe529ed6a1" x="305.802483" y="43.098114" style="fill: #808080; stroke: #808080"/>
     <use xlink:href="#mfe529ed6a1" x="98.997751" y="167.697173" style="fill: #808080; stroke: #808080"/>
     <use xlink:href="#mfe529ed6a1" x="269.963863" y="75.849477" style="fill: #808080; stroke: #808080"/>
     <use xlink:href="#mfe529ed6a1" x="253.307563" y="90.150047" style="fill: #808080; stroke: #808080"/>
     <use xlink:href="#mfe529ed6a1" x="288.45865" y="71.710446" style="fill: #808080; stroke: #808080"/>
     <use xlink:href="#mfe529ed6a1" x="349.652846" y="34.30028" style="fill: #808080; stroke: #808080"/>
     <use xlink:href="#mfe529ed6a1" x="209.57698" y="85.139384" style="fill: #808080; stroke: #808080"/>
     <use xlink:href="#mfe529ed6a1" x="220.640722" y="122.638674" style="fill: #808080; stroke: #808080"/>
     <use xlink:href="#mfe529ed6a1" x="271.34499" y="65.726873" style="fill: #808080; stroke: #808080"/>
     <use xlink:href="#mfe529ed6a1" x="180.255631" y="132.423055" style="fill: #808080; stroke: #808080"/>
     <use xlink:href="#mfe529ed6a1" x="285.869241" y="92.56923" style="fill: #808080; stroke: #808080"/>
     <use xlink:href="#mfe529ed6a1" x="287.523459" y="79.625977" style="fill: #808080; stroke: #808080"/>
     <use xlink:href="#mfe529ed6a1" x="303.459521" y="69.02358" style="fill: #808080; stroke: #808080"/>
     <use xlink:href="#mfe529ed6a1" x="310.063187" y="59.869556" style="fill: #808080; stroke: #808080"/>
     <use xlink:href="#mfe529ed6a1" x="177.989687" y="122.697982" style="fill: #808080; stroke: #808080"/>
     <use xlink:href="#mfe529ed6a1" x="245.153884" y="71.26008" style="fill: #808080; stroke: #808080"/>
     <use xlink:href="#mfe529ed6a1" x="274.520888" y="86.532495" style="fill: #808080; stroke: #808080"/>
     <use xlink:href="#mfe529ed6a1" x="241.727112" y="98.75306" style="fill: #808080; stroke: #808080"/>
     <use xlink:href="#mfe529ed6a1" x="240.382547" y="105.507827" style="fill: #808080; stroke: #808080"/>
     <use xlink:href="#mfe529ed6a1" x="298.235374" y="62.754336" style="fill: #808080; stroke: #808080"/>
     <use xlink:href="#mfe529ed6a1" x="233.862428" y="101.987326" style="fill: #808080; stroke: #808080"/>
     <use xlink:href="#mfe529ed6a1" x="385.150856" y="8.82" style="fill: #808080; stroke: #808080"/>
     <use xlink:href="#mfe529ed6a1" x="286.874415" y="52.23896" style="fill: #808080; stroke: #808080"/>
     <use xlink:href="#mfe529ed6a1" x="160.583552" y="112.675186" style="fill: #808080; stroke: #808080"/>
     <use xlink:href="#mfe529ed6a1" x="336.173" y="52.281303" style="fill: #808080; stroke: #808080"/>
     <use xlink:href="#mfe529ed6a1" x="346.420364" y="38.403031" style="fill: #808080; stroke: #808080"/>
     <use xlink:href="#mfe529ed6a1" x="85.189856" y="175.086017" style="fill: #808080; stroke: #808080"/>
     <use xlink:href="#mfe529ed6a1" x="238.909945" y="97.783019" style="fill: #808080; stroke: #808080"/>
     <use xlink:href="#mfe529ed6a1" x="188.216384" y="119.195838" style="fill: #808080; stroke: #808080"/>
     <use xlink:href="#mfe529ed6a1" x="274.283387" y="75.15514" style="fill: #808080; stroke: #808080"/>
     <use xlink:href="#mfe529ed6a1" x="256.793881" y="64.512393" style="fill: #808080; stroke: #808080"/>
     <use xlink:href="#mfe529ed6a1" x="320.741882" y="65.443966" style="fill: #808080; stroke: #808080"/>
     <use xlink:href="#mfe529ed6a1" x="233.358342" y="111.707062" style="fill: #808080; stroke: #808080"/>
     <use xlink:href="#mfe529ed6a1" x="280.590425" y="82.048479" style="fill: #808080; stroke: #808080"/>
     <use xlink:href="#mfe529ed6a1" x="84.590178" y="168.112206" style="fill: #808080; stroke: #808080"/>
     <use xlink:href="#mfe529ed6a1" x="317.262518" y="65.002748" style="fill: #808080; stroke: #808080"/>
     <use xlink:href="#mfe529ed6a1" x="211.311697" y="115.555037" style="fill: #808080; stroke: #808080"/>
     <use xlink:href="#mfe529ed6a1" x="133.246213" y="137.298466" style="fill: #808080; stroke: #808080"/>
     <use xlink:href="#mfe529ed6a1" x="215.127027" y="101.908081" style="fill: #808080; stroke: #808080"/>
     <use xlink:href="#mfe529ed6a1" x="298.816363" y="71.241037" style="fill: #808080; stroke: #808080"/>
     <use xlink:href="#mfe529ed6a1" x="234.011856" y="104.818031" style="fill: #808080; stroke: #808080"/>
     <use xlink:href="#mfe529ed6a1" x="143.592139" y="149.641015" style="fill: #808080; stroke: #808080"/>
     <use xlink:href="#mfe529ed6a1" x="213.023442" y="105.35788" style="fill: #808080; stroke: #808080"/>
     <use xlink:href="#mfe529ed6a1" x="300.318634" y="59.750554" style="fill: #808080; stroke: #808080"/>
     <use xlink:href="#mfe529ed6a1" x="256.542745" y="111.814822" style="fill: #808080; stroke: #808080"/>
     <use xlink:href="#mfe529ed6a1" x="185.922144" y="131.02073" style="fill: #808080; stroke: #808080"/>
     <use xlink:href="#mfe529ed6a1" x="83.66207" y="176.141296" style="fill: #808080; stroke: #808080"/>
     <use xlink:href="#mfe529ed6a1" x="214.162834" y="91.771793" style="fill: #808080; stroke: #808080"/>
     <use xlink:href="#mfe529ed6a1" x="304.838" y="60.342982" style="fill: #808080; stroke: #808080"/>
     <use xlink:href="#mfe529ed6a1" x="129.624353" y="137.86428" style="fill: #808080; stroke: #808080"/>
     <use xlink:href="#mfe529ed6a1" x="134.202073" y="145.339189" style="fill: #808080; stroke: #808080"/>
     <use xlink:href="#mfe529ed6a1" x="168.818404" y="118.519188" style="fill: #808080; stroke: #808080"/>
     <use xlink:href="#mfe529ed6a1" x="159.127219" y="116.270247" style="fill: #808080; stroke: #808080"/>
     <use xlink:href="#mfe529ed6a1" x="232.528777" y="79.228619" style="fill: #808080; stroke: #808080"/>
     <use xlink:href="#mfe529ed6a1" x="275.321989" y="92.239027" style="fill: #808080; stroke: #808080"/>
     <use xlink:href="#mfe529ed6a1" x="378.155346" y="10.082174" style="fill: #808080; stroke: #808080"/>
     <use xlink:href="#mfe529ed6a1" x="310.758337" y="66.798301" style="fill: #808080; stroke: #808080"/>
     <use xlink:href="#mfe529ed6a1" x="320.856805" y="63.347469" style="fill: #808080; stroke: #808080"/>
     <use xlink:href="#mfe529ed6a1" x="303.898987" y="67.606724" style="fill: #808080; stroke: #808080"/>
     <use xlink:href="#mfe529ed6a1" x="143.699122" y="134.280122" style="fill: #808080; stroke: #808080"/>
     <use xlink:href="#mfe529ed6a1" x="173.216444" y="127.823041" style="fill: #808080; stroke: #808080"/>
     <use xlink:href="#mfe529ed6a1" x="239.050745" y="84.32398" style="fill: #808080; stroke: #808080"/>
     <use xlink:href="#mfe529ed6a1" x="200.359672" y="105.701142" style="fill: #808080; stroke: #808080"/>
     <use xlink:href="#mfe529ed6a1" x="173.783898" y="109.230363" style="fill: #808080; stroke: #808080"/>
     <use xlink:href="#mfe529ed6a1" x="254.650248" y="96.99497" style="fill: #808080; stroke: #808080"/>
     <use xlink:href="#mfe529ed6a1" x="312.347195" y="56.274813" style="fill: #808080; stroke: #808080"/>
     <use xlink:href="#mfe529ed6a1" x="109.906014" y="165.747194" style="fill: #808080; stroke: #808080"/>
     <use xlink:href="#mfe529ed6a1" x="134.785108" y="131.115399" style="fill: #808080; stroke: #808080"/>
     <use xlink:href="#mfe529ed6a1" x="261.390922" y="84.197203" style="fill: #808080; stroke: #808080"/>
     <use xlink:href="#mfe529ed6a1" x="264.030459" y="59.140513" style="fill: #808080; stroke: #808080"/>
     <use xlink:href="#mfe529ed6a1" x="267.043912" y="91.687083" style="fill: #808080; stroke: #808080"/>
     <use xlink:href="#mfe529ed6a1" x="225.551571" y="88.703505" style="fill: #808080; stroke: #808080"/>
     <use xlink:href="#mfe529ed6a1" x="180.734015" y="129.2755" style="fill: #808080; stroke: #808080"/>
     <use xlink:href="#mfe529ed6a1" x="356.904986" y="13.209892" style="fill: #808080; stroke: #808080"/>
     <use xlink:href="#mfe529ed6a1" x="335.108306" y="17.463177" style="fill: #808080; stroke: #808080"/>
     <use xlink:href="#mfe529ed6a1" x="233.999461" y="99.550383" style="fill: #808080; stroke: #808080"/>
     <use xlink:href="#mfe529ed6a1" x="367.448186" y="16.016779" style="fill: #808080; stroke: #808080"/>
     <use xlink:href="#mfe529ed6a1" x="286.731493" y="82.286242" style="fill: #808080; stroke: #808080"/>
     <use xlink:href="#mfe529ed6a1" x="217.065005" y="102.546377" style="fill: #808080; stroke: #808080"/>
    </g>
   </g>
   <g id="line2d_29">
    <path d="M 50.356108 184.458157 
L 405.447017 11.893063 
" clip-path="url(#p70ea5c330d)" style="fill: none; stroke: #000000; stroke-width: 1.5; stroke-linecap: square"/>
   </g>
   <g id="patch_3">
    <path d="M 32.601563 194.04 
L 32.601563 0 
" style="fill: none; stroke: #000000; stroke-width: 0.8; stroke-linejoin: miter; stroke-linecap: square"/>
   </g>
   <g id="patch_4">
    <path d="M 423.201563 194.04 
L 423.201563 0 
" style="fill: none; stroke: #000000; stroke-width: 0.8; stroke-linejoin: miter; stroke-linecap: square"/>
   </g>
   <g id="patch_5">
    <path d="M 32.601563 194.04 
L 423.201563 194.04 
" style="fill: none; stroke: #000000; stroke-width: 0.8; stroke-linejoin: miter; stroke-linecap: square"/>
   </g>
   <g id="patch_6">
    <path d="M 32.601563 0 
L 423.201563 0 
" style="fill: none; stroke: #000000; stroke-width: 0.8; stroke-linejoin: miter; stroke-linecap: square"/>
   </g>
  </g>
 </g>
 <defs>
  <clipPath id="p70ea5c330d">
   <rect x="32.601563" y="0" width="390.6" height="194.04"/>
  </clipPath>
 </defs>
</svg>
