<?xml version="1.0" encoding="utf-8"?>
<!-- Generator: Adobe Illustrator 26.4.1, SVG Export Plug-In . SVG Version: 6.00 Build 0)  -->
<svg version="1.1" id="artwork" xmlns="http://www.w3.org/2000/svg" xmlns:xlink="http://www.w3.org/1999/xlink" x="0px" y="0px"
	 viewBox="0 0 575 310.5" style="enable-background:new 0 0 575 310.5;" xml:space="preserve">
<style type="text/css">
	.st0{fill:#FFFFFF;}
</style>
<g>
	<path class="st0" d="M142.5,104c0-14.9,6.4-22.3,10-25.7l-0.4-0.7c-55.4,0-70.2,0-73.5,0c-0.2,0-0.3,0-0.4,0s-0.1,0-0.2,0h-0.1
		c-0.1,0-0.1,0-0.1,0v8.2h3.8v72.3c0,9.8,0.3,23.2,5.8,35.7c5.4,12.3,13.2,21.5,26.6,21.5c13.6,0,27.7-14.6,10.7-37.4
		C112,161,89.9,145.7,89.9,110.5c0-14.6,5.3-22.1,7.6-24.6h15.1c-1.7,2.3-6.4,9.9-6.4,22.9c0,42.4,43.8,56.1,43.8,87.2
		c0,14.8-11.8,30.6-25,32.6l-0.2,1.3c3.5,1.3,7.4,2.3,11.1,3c5.2-0.2,48.7-12.2,48.7-50C184.5,146.3,142.5,136.5,142.5,104z
		 M90.5,147.6c0.1,0,0.4-0.2,0.5-0.2c6.7,15.9,23.7,30,29.3,43.3c4,9.5,0.4,16.2-6.2,16.2c-15.2,0-23.5-22.3-23.5-47.6
		C90.5,156.7,90.5,147.6,90.5,147.6z M148.2,221.2c-0.1-0.2-0.2-0.3-0.3-0.4c5.8-4.5,12.6-13,12.6-25c0-35.6-44.6-49-44.6-88.3
		c0-11.9,4.8-19.3,6.6-21.6h14.4c-1.5,2.6-4.3,9.3-4.3,19.1c0,35.9,41.8,46.5,41.8,79.3C174.3,203.5,158.1,217.7,148.2,221.2z"/>
	<path class="st0" d="M78.1,77.7c-0.1,0-0.1,0-0.2,0C77.9,77.7,78,77.7,78.1,77.7C78,77.7,78.1,77.7,78.1,77.7z"/>
	<path class="st0" d="M184.2,77.7c-6.4,0-11.7,1.3-16.4,5c-1.1,0.9-9.3,7.5-9.3,18.4c0,13.2,8.7,23.1,18.3,32.7
		c7.4,7.4,11,12.1,12.5,14.6l0.9-0.3V85.9h3.8c0-0.2,0-8.5,0-8.2C193.9,77.7,187.2,77.7,184.2,77.7z M181.3,126.7
		c-0.1,0-0.3,0.1-0.4,0.2c-4-5.3-13.9-14.5-13.9-25.9c0-6.6,4.5-12.6,9.2-14.2c1.4-0.5,2.8-0.5,4.2-0.5c0.5,0,0.3,0,0.9,0V126.7z"/>
</g>
<g>
	<path class="st0" d="M218.1,116.1l3.1-0.2c0.1,0.4,0.2,0.8,0.3,1.1c1,3.2,3.6,5.8,7.2,5.8c3.3,0,6.8-2.1,6.8-6.2
		c0-4.4-4-6.5-9.2-8.6c-4.8-2-8.9-5.2-8.9-10.6c0-6.2,5.5-9.7,11.9-9.7c2.8,0,6,0.6,8.8,1.8c0.3,0.1,0.7,0.3,1,0.4l-0.7,6.8
		l-3.2-0.2c0-0.3-0.1-0.7-0.2-1c-0.7-2.6-3-4.4-6.3-4.4s-5.8,1.9-5.8,5.1c0,2.9,2,4.5,7.1,6.5c5.7,2.3,11.6,6.5,11.6,13.1
		c0,6.7-6.3,10.6-13.3,10.6c-3.7,0-6.7-1.2-10-2.8L218.1,116.1z"/>
	<path class="st0" d="M259.6,123.6c-1.8,1.7-4,2.7-6.6,2.7c-4.7,0-5.9-3.6-5.9-7.7v-16.3h-2.6v-3.7c2.8,0,3.9-2,4-4.4l0.1-3h4.5v7.4
		h6.3v1.3c0,1.7-1.2,2.4-2.8,2.4h-3.5V119c0,2,0.8,3.7,2.7,3.7c1.1,0,2.1-0.6,2.8-1.1L259.6,123.6z"/>
	<path class="st0" d="M283.8,121.3c-2.2,3.3-6.2,5.1-10.1,5.1c-8.6,0-13.3-7.1-13.3-15c0-7.2,5.6-13.3,12.9-13.3
		c4.7,0,9.5,2.2,10.6,6.6c0.3,0.8,0.4,1.7,0.4,2.6c0,4.8-4.2,6.7-9,6.7h-8.6c0.2,4.4,3.2,8.5,7.7,8.8c3.6,0,5.7-0.9,8.4-3.2
		L283.8,121.3z M270.1,110.4c4.2,0,8.7,0,8.7-3.9c0-2.6-2-5-5-5c-4.6,0-7,4.9-7,8.9C267.8,110.4,268.9,110.4,270.1,110.4z"/>
	<path class="st0" d="M289.4,89.5c0-1.1-1-1.2-1.8-1.2h-0.5v-2.4h4.3c3.3,0,4,1.7,4,4.6v30.3c0,1.3,0.4,1.7,1.4,2.2v2.7h-8.9V123
		c1.1-0.5,1.5-0.9,1.5-2.2V89.5z"/>
	<path class="st0" d="M302.7,89.5c0-1.1-1-1.2-1.8-1.2h-0.5v-2.4h4.3c3.3,0,4,1.7,4,4.6v30.3c0,1.3,0.4,1.7,1.4,2.2v2.7h-8.9V123
		c1.1-0.5,1.5-0.9,1.5-2.2V89.5z"/>
	<path class="st0" d="M336.4,121.3c-2.2,3.3-6.2,5.1-10.1,5.1c-8.6,0-13.3-7.1-13.3-15c0-7.2,5.6-13.3,12.9-13.3
		c4.7,0,9.5,2.2,10.6,6.6c0.3,0.8,0.4,1.7,0.4,2.6c0,4.8-4.2,6.7-9,6.7h-8.6c0.2,4.4,3.2,8.5,7.7,8.8c3.6,0,5.7-0.9,8.4-3.2
		L336.4,121.3z M322.7,110.4c4.2,0,8.7,0,8.7-3.9c0-2.6-2-5-5-5c-4.6,0-7,4.9-7,8.9C320.4,110.4,321.5,110.4,322.7,110.4z"/>
	<path class="st0" d="M340.8,125.7V123c0.4,0,0.7-0.1,0.9-0.3c0.5-0.4,0.6-1.2,0.6-1.9v-18.9c0-0.7-0.4-1.1-1.1-1.2
		c-0.3-0.1-0.6-0.1-0.9-0.1v-2.4h4c3,0,3.7,1.7,3.7,3.5c2-2.4,4.6-3.5,7.7-3.5c5.9,0,8.5,4.1,8.5,9.3v13.2c0,0.6,0.1,1.4,0.6,1.9
		c0.2,0.2,0.5,0.3,0.9,0.3v2.7h-9V123c1.3,0,1.5-1.1,1.5-2.2v-13.4c0-2.7-1.3-5.5-4.4-5.5c-2.7,0-4.9,2.1-5.7,4.7v14.2
		c0,0.4,0,1,0.2,1.4c0.1,0.2,0.2,0.3,0.3,0.5c0.3,0.2,0.5,0.3,1,0.3v2.7H340.8z"/>
	<path class="st0" d="M367,85.9h4.3c3.4,0,4,1.7,4,4.4c0,2.9,0,10.2,0,10.2c1.5-1.8,4.1-2.5,6.5-2.5c7.8,0,11.9,7.3,11.9,14.2
		c0,7.9-4.7,14.1-13.5,14.1c-5.9,0-10.8-2.8-10.8-9V89.5c0-0.7-0.5-1-1.1-1.1c-0.3-0.1-0.6-0.1-1-0.1H367V85.9z M375.3,117.5
		c0,3.4,1.6,5.5,4.7,5.5c5.7,0,7.2-6.7,7.2-11.3c0-4.1-1.4-9.8-6.5-9.8c-2,0-4.4,1.2-5.4,3L375.3,117.5L375.3,117.5z"/>
	<path class="st0" d="M410,98c7.9,0,13.4,6.5,13.4,14s-5.5,14.3-13.4,14.3c-7.8,0-13.5-6.9-13.5-14.4S402.2,98,410,98z M409.9,123
		c5.6,0,6.8-6.6,6.8-10.8c0-4.4-1.4-10.8-7-10.8c-5.4,0-6.7,6.1-6.7,10.4C403,115.9,404.1,123,409.9,123z"/>
	<path class="st0" d="M426.3,118.5h2.9c0.8,3,3,4.9,6.2,4.9c2.5,0,4.7-1.2,4.7-3.5c0-1.6-1-2.5-2.3-3.3c-0.9-0.5-1.8-0.9-2.7-1.3
		c-4.2-1.8-9.5-4.1-9.5-9.4c0-4.7,4.1-7.9,10.2-7.9c2.5,0,5.7,0.5,7.9,1.4l0.3,0.1v5.9h-3c-0.7-2.7-2.7-4.2-5.6-4.2
		s-4.3,1.7-4.3,3.1c0,2.1,2.9,3.8,5.9,5.2c0.6,0.3,1.3,0.6,1.9,0.9c3.6,1.7,6.9,3.4,6.9,7.9c0,7-7.7,8-10.8,8
		c-3.1,0-5.8-0.9-8.5-2.2l-0.3-0.2L426.3,118.5L426.3,118.5z"/>
	<path class="st0" d="M471.8,120.9L471.8,120.9c-2.4,3-5.8,5.4-9.8,5.4c-8.6,0-13.4-6.2-13.4-14S453.6,98,462,98
		c3.3,0,5.6,0.4,8.3,1.7c0.3,0.1,0.6,0.3,1,0.4v5.3h-3c-0.2-0.4-0.3-0.7-0.5-1.1c-1-2-2.7-3.3-5.2-3.3c-5.6,0-7.5,6.4-7.5,11
		c0,4.7,2,10.5,7.9,10.5c2.8,0,5-1.3,6.7-3.3c0.3-0.3,0.6-0.7,0.8-1.1L471.8,120.9z"/>
	<path class="st0" d="M473.9,125.7V123l0.3-0.1c0.5-0.3,1.2-0.7,1.2-2.1V89.5c0-1.1-1.2-1.2-2-1.2h-0.5v-2.4h4.5
		c3.9,0,4.1,2.2,4.1,5.3c0,2.5,0,9.8,0,9.8c1.8-2.1,3.7-2.9,6.3-2.9c5.9,0,9.3,4.1,9.3,9v13.5c0,1.3,0.4,1.7,1.5,2.2v2.7h-9V123
		c1-0.4,1.6-1.1,1.6-2.2v-13.4c0-3-1.8-5.4-4.4-5.6c-2.7,0-4.7,1.6-5.6,4v15c0,1,0.4,1.5,1.1,1.9c0.2,0.1,0.4,0.2,0.6,0.3v2.7
		C482.9,125.7,473.9,125.7,473.9,125.7z"/>
</g>
<g>
	<path class="st0" d="M226.2,160.5c0.8,0,1.6-0.2,2.1-0.5c0.6-0.3,1-0.8,1.4-1.4s0.6-1.2,0.8-1.9c0.1-0.7,0.2-1.5,0.2-2.2v-9.4h3.6
		v9.4c0,1.3-0.2,2.5-0.5,3.6s-0.8,2.1-1.4,2.9s-1.5,1.5-2.5,2s-2.2,0.7-3.7,0.7s-2.7-0.3-3.8-0.8c-1-0.5-1.9-1.2-2.5-2
		s-1.1-1.8-1.4-2.9c-0.3-1.1-0.4-2.3-0.4-3.5v-9.4h3.6v9.4c0,0.8,0.1,1.5,0.2,2.2c0.1,0.7,0.4,1.4,0.8,1.9c0.4,0.6,0.8,1,1.4,1.3
		C224.7,160.4,225.4,160.5,226.2,160.5z"/>
	<path class="st0" d="M245.1,151.7v11.8h-3.6V145h2.8l9.6,12.1V145h3.6v18.4h-2.9L245.1,151.7z"/>
	<path class="st0" d="M264.9,163.6v-18.5h3.6v18.5H264.9z"/>
	<path class="st0" d="M277.8,145.1l5,14l4.9-14h3.8l-7.2,18.5h-3l-7.3-18.5H277.8z"/>
	<path class="st0" d="M309.8,160.4v3.1H297V145h12.6v3.1h-9v4.4h7.8v2.9h-7.8v4.8h9.2V160.4z"/>
	<path class="st0" d="M316.2,163.6v-18.5h8.2c0.8,0,1.6,0.2,2.4,0.5s1.3,0.8,1.9,1.4c0.5,0.6,0.9,1.2,1.2,2c0.3,0.7,0.4,1.5,0.4,2.2
		c0,1.2-0.3,2.3-0.9,3.3s-1.4,1.7-2.4,2.1l4.2,6.9h-4l-3.8-6.2h-3.5v6.2h-3.7V163.6z M319.8,154.2h4.5c0.3,0,0.6-0.1,0.9-0.2
		c0.3-0.2,0.5-0.4,0.7-0.6c0.2-0.3,0.4-0.6,0.5-0.9c0.1-0.4,0.2-0.8,0.2-1.2s-0.1-0.8-0.2-1.2s-0.3-0.7-0.6-0.9
		c-0.2-0.3-0.5-0.5-0.8-0.6s-0.6-0.2-0.9-0.2h-4.3L319.8,154.2L319.8,154.2z"/>
	<path class="st0" d="M348.1,150c-0.1-0.1-0.3-0.3-0.7-0.5s-0.7-0.4-1.2-0.6s-1-0.4-1.5-0.5s-1.1-0.2-1.6-0.2c-1,0-1.7,0.2-2.2,0.5
		c-0.5,0.4-0.7,0.9-0.7,1.5c0,0.4,0.1,0.7,0.3,0.9c0.2,0.3,0.4,0.5,0.8,0.7s0.8,0.4,1.3,0.5c0.5,0.2,1.1,0.3,1.8,0.5
		c0.9,0.2,1.7,0.5,2.5,0.8s1.4,0.6,1.9,1s0.9,0.9,1.2,1.5c0.3,0.6,0.4,1.3,0.4,2.1c0,1-0.2,1.8-0.6,2.5s-0.9,1.3-1.5,1.7
		s-1.4,0.8-2.2,0.9c-0.8,0.2-1.7,0.3-2.6,0.3c-1.4,0-2.8-0.2-4.1-0.6s-2.6-1-3.6-1.8l1.6-3.1c0.2,0.2,0.4,0.4,0.8,0.6
		s0.9,0.5,1.4,0.8c0.6,0.3,1.2,0.5,1.8,0.6c0.7,0.2,1.4,0.3,2.1,0.3c2,0,3-0.6,3-1.9c0-0.4-0.1-0.7-0.3-1s-0.5-0.5-1-0.7
		s-0.9-0.4-1.5-0.6c-0.6-0.2-1.2-0.4-2-0.6c-0.9-0.2-1.7-0.5-2.3-0.8s-1.2-0.6-1.6-1s-0.8-0.8-1-1.4c-0.2-0.5-0.3-1.1-0.3-1.8
		c0-0.9,0.2-1.8,0.5-2.5s0.8-1.3,1.4-1.8s1.3-0.9,2.1-1.1c0.8-0.3,1.7-0.4,2.6-0.4c1.3,0,2.5,0.2,3.6,0.6c1.1,0.4,2,0.9,2.9,1.4
		L348.1,150z"/>
	<path class="st0" d="M356.6,163.6v-18.5h3.6v18.5H356.6z"/>
	<path class="st0" d="M381.4,148.3h-5.9v15.3h-3.6v-15.3H366v-3.1h15.4V148.3z"/>
	<path class="st0" d="M389.3,145.1l4.6,8.9l4.6-8.9h3.9l-6.7,12v6.4h-3.6V157l-6.7-12h3.9V145.1z"/>
</g>
<g>
	<path class="st0" d="M218.2,191.7v-18.5h3.6v18.5H218.2z"/>
	<path class="st0" d="M231.2,173.3l4.5,8.9l4.6-8.9h3.9l-6.7,12v6.4H234v-6.5l-6.7-12h3.9V173.3z"/>
	<path class="st0" d="M257.7,188.7c0.8,0,1.6-0.2,2.1-0.5c0.6-0.3,1-0.8,1.4-1.4c0.4-0.6,0.6-1.2,0.8-1.9c0.1-0.7,0.2-1.5,0.2-2.2
		v-9.4h3.6v9.4c0,1.3-0.2,2.5-0.5,3.6s-0.8,2.1-1.4,2.9c-0.6,0.8-1.5,1.5-2.5,2s-2.2,0.7-3.7,0.7s-2.7-0.3-3.8-0.8
		c-1-0.5-1.9-1.2-2.5-2s-1.1-1.8-1.4-2.9s-0.4-2.3-0.4-3.5v-9.4h3.6v9.4c0,0.8,0.1,1.5,0.2,2.2c0.1,0.7,0.4,1.4,0.8,1.9
		s0.8,1,1.4,1.3C256.2,188.5,256.9,188.7,257.7,188.7z"/>
	<path class="st0" d="M276.5,179.9v11.8H273v-18.5h2.8l9.6,12.1v-12.1h3.6v18.4h-3L276.5,179.9z"/>
	<path class="st0" d="M296.3,191.7v-18.5h3.6v18.5H296.3z"/>
	<path class="st0" d="M309.2,173.3l5,14l4.9-14h3.8l-7.2,18.5h-3l-7.3-18.5H309.2z"/>
	<path class="st0" d="M341.3,188.6v3.1h-12.8v-18.5h12.6v3.1h-9v4.4h7.8v2.9h-7.8v4.8h9.2V188.6z"/>
	<path class="st0" d="M358.3,178.1c-0.1-0.1-0.3-0.3-0.7-0.5c-0.3-0.2-0.7-0.4-1.2-0.6c-0.5-0.2-1-0.4-1.5-0.5s-1.1-0.2-1.6-0.2
		c-1,0-1.7,0.2-2.2,0.5c-0.5,0.4-0.7,0.9-0.7,1.5c0,0.4,0.1,0.7,0.3,0.9c0.2,0.3,0.4,0.5,0.8,0.7c0.3,0.2,0.8,0.4,1.3,0.5
		c0.5,0.2,1.1,0.3,1.8,0.5c0.9,0.2,1.7,0.5,2.5,0.8s1.4,0.6,1.9,1s0.9,0.9,1.2,1.5s0.4,1.3,0.4,2.1c0,1-0.2,1.8-0.6,2.5
		s-0.9,1.3-1.5,1.7s-1.4,0.8-2.2,0.9c-0.8,0.2-1.7,0.3-2.6,0.3c-1.4,0-2.8-0.2-4.1-0.6c-1.4-0.4-2.6-1-3.6-1.8l1.6-3.1
		c0.2,0.2,0.4,0.4,0.8,0.6c0.4,0.3,0.9,0.5,1.4,0.8c0.6,0.3,1.2,0.5,1.8,0.6c0.7,0.2,1.4,0.3,2.1,0.3c2,0,3-0.6,3-1.9
		c0-0.4-0.1-0.7-0.3-1c-0.2-0.3-0.5-0.5-1-0.7s-0.9-0.4-1.5-0.6c-0.6-0.2-1.2-0.4-2-0.6c-0.9-0.2-1.7-0.5-2.3-0.8
		c-0.7-0.3-1.2-0.6-1.6-1s-0.8-0.8-1-1.4c-0.2-0.5-0.3-1.1-0.3-1.8c0-0.9,0.2-1.8,0.5-2.5s0.8-1.3,1.4-1.8s1.3-0.9,2.1-1.1
		c0.8-0.3,1.7-0.4,2.6-0.4c1.3,0,2.5,0.2,3.6,0.6s2,0.9,2.9,1.4L358.3,178.1z"/>
	<path class="st0" d="M366.8,191.7v-18.5h3.6v18.5H366.8z"/>
	<path class="st0" d="M391.6,176.4h-5.9v15.3h-3.6v-15.3h-5.9v-3.1h15.4V176.4z"/>
	<path class="st0" d="M413,173.3v18.5h-3.6v-7.9H401v7.9h-3.6v-18.5h3.6v7.5h8.4v-7.5H413z"/>
	<path class="st0" d="M420.4,191.7v-18.5h3.6v18.5H420.4z"/>
</g>
<g>
	<path class="st0" d="M226.2,216.9c0.8,0,1.6-0.2,2.1-0.5s1-0.8,1.4-1.4s0.6-1.2,0.8-1.9c0.1-0.7,0.2-1.5,0.2-2.2v-9.4h3.6v9.4
		c0,1.3-0.2,2.5-0.5,3.6s-0.8,2.1-1.4,2.9s-1.5,1.5-2.5,2s-2.2,0.7-3.7,0.7s-2.7-0.3-3.8-0.8c-1-0.5-1.9-1.2-2.5-2s-1.1-1.8-1.4-2.9
		c-0.3-1.1-0.4-2.3-0.4-3.5v-9.4h3.6v9.4c0,0.8,0.1,1.5,0.2,2.2c0.1,0.7,0.4,1.4,0.8,1.9c0.4,0.6,0.8,1,1.4,1.3
		S225.4,216.9,226.2,216.9z"/>
	<path class="st0" d="M245.1,208.1v11.8h-3.6v-18.5h2.8l9.6,12.1v-12.1h3.6v18.4h-2.9L245.1,208.1z"/>
	<path class="st0" d="M264.9,219.9v-18.5h3.6v18.5H264.9z"/>
	<path class="st0" d="M277.8,201.4l5,14l4.9-14h3.8l-7.2,18.5h-3l-7.3-18.5H277.8z"/>
	<path class="st0" d="M309.8,216.8v3.1H297v-18.5h12.6v3.1h-9v4.4h7.8v2.9h-7.8v4.8h9.2V216.8z"/>
	<path class="st0" d="M316.2,219.9v-18.5h8.2c0.8,0,1.6,0.2,2.4,0.5c0.7,0.4,1.3,0.8,1.9,1.4c0.5,0.6,0.9,1.2,1.2,2
		c0.3,0.7,0.4,1.5,0.4,2.2c0,1.2-0.3,2.3-0.9,3.3s-1.4,1.7-2.4,2.1l4.2,6.9h-4l-3.8-6.2h-3.5v6.2h-3.7V219.9z M319.8,210.6h4.5
		c0.3,0,0.6-0.1,0.9-0.2c0.3-0.2,0.5-0.4,0.7-0.6s0.4-0.6,0.5-0.9c0.1-0.4,0.2-0.8,0.2-1.2s-0.1-0.8-0.2-1.2s-0.3-0.7-0.6-0.9
		s-0.5-0.5-0.8-0.6s-0.6-0.2-0.9-0.2h-4.3L319.8,210.6L319.8,210.6z"/>
	<path class="st0" d="M348.1,206.3c-0.1-0.1-0.3-0.3-0.7-0.5c-0.3-0.2-0.7-0.4-1.2-0.6s-1-0.4-1.5-0.5s-1.1-0.2-1.6-0.2
		c-1,0-1.7,0.2-2.2,0.5c-0.5,0.4-0.7,0.9-0.7,1.5c0,0.4,0.1,0.7,0.3,0.9c0.2,0.3,0.4,0.5,0.8,0.7c0.3,0.2,0.8,0.4,1.3,0.5
		c0.5,0.2,1.1,0.3,1.8,0.5c0.9,0.2,1.7,0.5,2.5,0.8c0.7,0.3,1.4,0.6,1.9,1s0.9,0.9,1.2,1.5c0.3,0.6,0.4,1.3,0.4,2.1
		c0,1-0.2,1.8-0.6,2.5s-0.9,1.3-1.5,1.7s-1.4,0.8-2.2,0.9s-1.7,0.3-2.6,0.3c-1.4,0-2.8-0.2-4.1-0.6c-1.4-0.4-2.6-1-3.6-1.8l1.6-3.1
		c0.2,0.2,0.4,0.4,0.8,0.6c0.4,0.3,0.9,0.5,1.4,0.8c0.6,0.3,1.2,0.5,1.8,0.6c0.7,0.2,1.4,0.3,2.1,0.3c2,0,3-0.6,3-1.9
		c0-0.4-0.1-0.7-0.3-1c-0.2-0.3-0.5-0.5-1-0.7s-0.9-0.4-1.5-0.6c-0.6-0.2-1.2-0.4-2-0.6c-0.9-0.2-1.7-0.5-2.3-0.8
		c-0.6-0.3-1.2-0.6-1.6-1s-0.8-0.8-1-1.4c-0.2-0.5-0.3-1.1-0.3-1.8c0-0.9,0.2-1.8,0.5-2.5s0.8-1.3,1.4-1.8s1.3-0.9,2.1-1.1
		s1.7-0.4,2.6-0.4c1.3,0,2.5,0.2,3.6,0.6c1.1,0.4,2,0.9,2.9,1.4L348.1,206.3z"/>
	<path class="st0" d="M356.6,219.9v-18.5h3.6v18.5H356.6z"/>
	<path class="st0" d="M381.4,204.6h-5.9v15.3h-3.6v-15.3H366v-3.1h15.4V204.6z"/>
	<path class="st0" d="M400,216.8v3.1h-12.8v-18.5h12.6v3.1h-9v4.4h7.8v2.9h-7.8v4.8h9.2V216.8z"/>
	<path class="st0" d="M406.4,219.9v-18.5h3.6v18.5H406.4z"/>
	<path class="st0" d="M431.2,204.6h-5.9v15.3h-3.6v-15.3h-5.9v-3.1h15.4V204.6z"/>
</g>
</svg>
